<svg width="120" height="120" viewBox="0 0 120 120" fill="none" xmlns="http://www.w3.org/2000/svg">
<g clip-path="url(#clip0_32_34)">
<path fill-rule="evenodd" clip-rule="evenodd" d="M14.8926 102.265V96.9364H17.9199C17.9199 96.0866 17.9199 95.2369 17.9199 94.3871H21.0938V63.0149H14.6094V55.6867H105.391V63.0149H98.9062V94.3871H102.08V96.9364H105.107V102.265H14.8926ZM62.8613 2.18012C73.3789 -5.25802 74.1602 9.4683 84.4922 0.270601V15.2768C74.6387 24.3446 72.5195 9.69824 62.8613 17.1364V2.18012ZM61.377 0.810466V18.3261L108.652 43.0799V50.8879H11.6309V43.0899L58.7598 18.2661V0.810466H61.377ZM111.133 112.643H110.654V105.264C76.8945 105.264 43.1055 105.264 9.3457 105.264V112.643H8.86719V112.663H0V120.001H120V112.663H111.133V112.643ZM36.2109 96.9364H39.873V94.3871H43.0469V63.0149H33.0371V94.3871H36.2109V96.9364ZM58.1738 96.9364H61.8457V94.3871H65.0098V63.0149H55V94.3871H58.1738V96.9364ZM80.127 96.9364H83.7988V94.3871H86.9727V63.0149H76.9531V94.3871H80.127V96.9364Z" fill="black"/>
</g>
<defs>
<clipPath id="clip0_32_34">
<rect width="120" height="120" fill="white"/>
</clipPath>
</defs>
</svg>
