<svg width="120" height="100" viewBox="0 0 120 100" fill="none" xmlns="http://www.w3.org/2000/svg">
<g clip-path="url(#clip0_32_42)">
<path fill-rule="evenodd" clip-rule="evenodd" d="M11.7578 29.4047H20.9668L43.5156 1.97287C45.5176 -0.466931 48.9941 -0.679088 51.2305 1.49552C53.4766 3.67012 53.6719 7.44651 51.6699 9.88631L35.6348 29.4047H84.7754L68.7402 9.88631C66.7383 7.44651 66.9336 3.67012 69.1797 1.49552C71.4258 -0.679088 74.8926 -0.466931 76.9043 1.97287L99.4434 29.4047H108.252H108.369H116.641C118.496 29.4047 120.01 31.0489 120.01 33.0644V43.3858C120.01 45.4013 118.496 47.0455 116.641 47.0455H109.482L105.801 97.4645C105.703 98.8542 104.746 99.9998 103.467 99.9998H16.543C15.2637 99.9998 14.3066 98.8542 14.209 97.4645L10.5273 47.0455H3.36914C1.51367 47.0455 0 45.4013 0 43.3858V33.0644C0 31.0489 1.51367 29.4047 3.36914 29.4047H11.6406H11.7578ZM75.8496 49.0292H86.5039V82.4757H75.8496V49.0292ZM55.127 49.0292H65.7715V82.4757H55.127V49.0292ZM34.4043 49.0292H45.0586V82.4757H34.4043V49.0292Z" fill="black"/>
</g>
<defs>
<clipPath id="clip0_32_42">
<rect width="120" height="100" fill="white"/>
</clipPath>
</defs>
</svg>
