<svg width="120" height="82" viewBox="0 0 120 82" fill="none" xmlns="http://www.w3.org/2000/svg">
<g clip-path="url(#clip0_32_38)">
<path d="M50.6201 0.5H69.3799C71.5574 0.500118 73.5026 2.42846 73.5332 4.87305L73.5303 5.11133L73.4453 7.33008L73.4307 7.7207L73.8066 7.8291C96.3708 14.3589 113.1 36.5709 113.463 63.5439L113.468 63.8955L113.801 64.0098C117.066 65.1293 119.5 68.5288 119.5 72.5566V72.5586C119.5 77.5169 115.823 81.4998 111.443 81.5H8.55664C4.17634 81.4998 0.5 77.5219 0.5 72.5586V72.5566C0.5 68.5261 2.93368 65.1268 6.20117 64.0098L6.53516 63.8965L6.54004 63.5439C6.90066 36.5709 23.6296 14.3594 46.1963 7.82715L46.5713 7.71777L46.5566 7.32715L46.4727 5.11133C46.3749 2.55972 48.3751 0.50012 50.6201 0.5Z" fill="black" stroke="white"/>
<path d="M74.2256 13.1611C79.1743 14.7606 83.8445 17.118 88.0664 20.1074L80.8486 62.1299H72.3652L74.2256 13.1611ZM47.6387 62.1299H37.6807L30.5898 19.5762C35.2349 16.403 40.3092 13.9947 45.752 12.499L47.6387 62.1299Z" fill="white" stroke="black"/>
</g>
<defs>
<clipPath id="clip0_32_38">
<rect width="120" height="82" fill="white"/>
</clipPath>
</defs>
</svg>
