<svg width="120" height="120" viewBox="0 0 120 120" fill="none" xmlns="http://www.w3.org/2000/svg">
<g clip-path="url(#clip0_32_46)">
<path fill-rule="evenodd" clip-rule="evenodd" d="M19.9554 0H116.151C117.171 0.00257596 118.148 0.343961 118.869 0.9496C119.59 1.55524 119.997 2.37592 120 3.23242V93.3887C119.826 95.9082 115.953 95.9668 111.767 95.8106H18.5367C12.7454 95.8106 8.0124 99.7852 8.0124 104.648C8.0124 109.512 12.7454 113.486 18.5367 113.486H111.767V104.082H120V116.035C120 118.213 117.884 119.99 115.29 119.99H18.9437C8.52408 120 0 112.842 0 104.092V16.7578C0 7.53906 8.97761 0 19.9554 0ZM23.6651 13.0859H26.991C28.6888 13.0859 30.0843 14.0332 30.0843 15.1855V81.0742C30.0843 82.2266 28.6888 83.1738 26.991 83.1738H23.6651C21.9672 83.1738 20.5718 82.2266 20.5718 81.0742V15.1855C20.5834 14.0234 21.9672 13.0859 23.6651 13.0859Z" fill="black"/>
</g>
<defs>
<clipPath id="clip0_32_46">
<rect width="120" height="120" fill="white"/>
</clipPath>
</defs>
</svg>
