<svg width="120" height="120" viewBox="0 0 120 120" fill="none" xmlns="http://www.w3.org/2000/svg">
<g clip-path="url(#clip0_32_57)">
<path fill-rule="evenodd" clip-rule="evenodd" d="M3.08594 45.8972H10.3906V0H29.2188V45.8972H36.1621V10.9234H50.6348V45.8972H69.4141V31.1018L91.0547 45.8972H94.9902V31.1018L116.631 45.8972H116.914C118.613 45.8972 120.01 47.3977 120.01 49.2235V116.684C120.01 118.51 118.613 120.01 116.914 120.01H3.08594C1.38672 120.01 0 118.51 0 116.684V49.2235C0 47.3977 1.38672 45.8972 3.08594 45.8972ZM74.0625 78.447H63.2031C62.7148 78.447 62.3145 78.8772 62.3145 79.4019V91.0703C62.3145 91.595 62.7148 92.0252 63.2031 92.0252H74.0625C74.5508 92.0252 74.9512 91.595 74.9512 91.0703V79.4019C74.9512 78.8772 74.5508 78.447 74.0625 78.447ZM74.9512 60.9654H64.0918C63.6035 60.9654 63.2031 61.3956 63.2031 61.9202V73.5887C63.2031 74.1133 63.6035 74.5435 64.0918 74.5435H74.9512C75.4395 74.5435 75.8398 74.1133 75.8398 73.5887V61.9202C75.8398 61.3956 75.4395 60.9654 74.9512 60.9654ZM83.1738 61.9202H94.0332C94.5215 61.9202 94.9219 62.3505 94.9219 62.8751V74.5435C94.9219 75.0682 94.5215 75.4984 94.0332 75.4984H83.1738C82.6855 75.4984 82.2852 75.0682 82.2852 74.5435V62.8751C82.2852 62.3505 82.6855 61.9202 83.1738 61.9202ZM100.479 62.8751H111.338C111.826 62.8751 112.227 63.3054 112.227 63.83V75.4984C112.227 76.0231 111.826 76.4533 111.338 76.4533H100.479C99.9902 76.4533 99.5898 76.0231 99.5898 75.4984V63.83C99.5898 63.3054 99.9902 62.8751 100.479 62.8751ZM100.24 81.6706H111.099C111.587 81.6706 111.988 82.1009 111.988 82.6255V94.2939C111.988 94.8186 111.587 95.2488 111.099 95.2488H100.24C99.7513 95.2488 99.3509 94.8186 99.3509 94.2939V82.6255C99.3509 82.0904 99.7415 81.6706 100.24 81.6706ZM83.1123 80.3205H93.9717C94.46 80.3205 94.8604 80.7508 94.8604 81.2754V92.9438C94.8604 93.4685 94.46 93.8987 93.9717 93.8987H83.1123C82.624 93.8987 82.2237 93.4685 82.2237 92.9438V81.2754C82.2237 80.7403 82.624 80.3205 83.1123 80.3205Z" fill="black"/>
</g>
<defs>
<clipPath id="clip0_32_57">
<rect width="120" height="120" fill="white"/>
</clipPath>
</defs>
</svg>
