<svg width="120" height="120" viewBox="0 0 120 120" fill="none" xmlns="http://www.w3.org/2000/svg">
<g clip-path="url(#clip0_32_53)">
<path fill-rule="evenodd" clip-rule="evenodd" d="M99.0644 36.5923C113.711 54.6978 120.843 76.0845 119.912 95.6548C113.142 79.1216 102.63 62.3638 88.6897 46.9243L84.0167 51.5825C83.4876 52.1099 82.6255 52.1099 82.0965 51.5825L67.323 36.8657C66.794 36.3384 66.794 35.479 67.323 34.9517L71.8589 30.4302C55.998 16.7193 38.8734 6.51418 22.0818 0.195817C41.8712 -1.28856 63.7179 5.51808 82.2728 20.0493L84.3203 18.0083C84.8494 17.481 85.7115 17.481 86.2405 18.0083L101.014 32.7349C101.543 33.2622 101.543 34.1216 101.014 34.6489L99.0644 36.5923ZM66.7744 41.5142L78.746 53.4478L14.4404 117.549C11.1487 120.831 5.76047 120.831 2.46877 117.549C-0.822924 114.268 -0.822924 108.897 2.46877 105.616L66.7744 41.5142Z" fill="black"/>
</g>
<defs>
<clipPath id="clip0_32_53">
<rect width="120" height="120" fill="white"/>
</clipPath>
</defs>
</svg>
