<svg width="120" height="100" viewBox="0 0 120 100" fill="none" xmlns="http://www.w3.org/2000/svg">
<g clip-path="url(#clip0_32_49)">
<path fill-rule="evenodd" clip-rule="evenodd" d="M76.4551 23.4803H94.4629C99.8535 23.4803 98.5937 22.816 101.621 27.4356L116.787 50.5535C119.961 55.3945 120.01 54.3478 120.01 60.155V79.2673C120.01 85.4569 115.098 90.5294 109.082 90.5294H106.855C107.051 89.533 107.148 88.4964 107.148 87.4396C107.148 78.6131 100.205 71.4473 91.6309 71.4473C83.0664 71.4473 76.1133 78.6031 76.1133 87.4396C76.1133 88.4964 76.2109 89.5229 76.4062 90.5294H56.7773C56.9629 89.533 57.0703 88.4964 57.0703 87.4396C57.0703 78.6131 50.127 71.4473 41.5527 71.4473C32.9883 71.4473 26.0352 78.6031 26.0352 87.4396C26.0352 88.4964 26.1328 89.5229 26.3281 90.5294H23.7402C18.2129 90.5294 13.6914 85.8696 13.6914 80.1731V63.4561H76.4551V23.4803ZM91.6211 74.8692C98.3496 74.8692 103.809 80.4952 103.809 87.4396C103.809 94.374 98.3496 100 91.6211 100C84.8828 100 79.4238 94.374 79.4238 87.4396C79.4238 80.4952 84.8828 74.8692 91.6211 74.8692ZM41.543 74.8692C48.2813 74.8692 53.7402 80.4952 53.7402 87.4396C53.7402 94.374 48.2813 100 41.543 100C34.8145 100 29.3555 94.374 29.3555 87.4396C29.3555 80.4952 34.8145 74.8692 41.543 74.8692ZM41.543 83.7158C43.5352 83.7158 45.1563 85.3764 45.1563 87.4396C45.1563 89.4928 43.5449 91.1534 41.543 91.1534C39.5508 91.1534 37.9395 89.4827 37.9395 87.4396C37.9395 85.3764 39.5605 83.7158 41.543 83.7158ZM91.6211 83.6252C93.6621 83.6252 95.3223 85.3361 95.3223 87.4396C95.3223 89.5431 93.6621 91.254 91.6211 91.254C89.5801 91.254 87.9199 89.5431 87.9199 87.4396C87.9199 85.3261 89.5801 83.6252 91.6211 83.6252ZM86.9238 32.5584H90.3906L105.195 53.8144V59.994C105.195 61.4936 104.004 62.7214 102.549 62.7214H86.9238C85.4297 62.7214 84.2187 61.4634 84.2187 59.9336V35.3563C84.209 33.8164 85.4297 32.5584 86.9238 32.5584ZM5.46875 0H68.2227C71.2305 0 73.6914 2.53623 73.6914 5.63607V54.8712C73.6914 57.971 71.2305 60.5072 68.2227 60.5072H5.46875C2.46094 60.5072 0 57.971 0 54.8712V5.63607C0 2.53623 2.46094 0 5.46875 0Z" fill="black"/>
</g>
<defs>
<clipPath id="clip0_32_49">
<rect width="120" height="100" fill="white"/>
</clipPath>
</defs>
</svg>
