<svg width="120" height="120" viewBox="0 0 120 120" fill="none" xmlns="http://www.w3.org/2000/svg">
<g clip-path="url(#clip0_32_70)">
<path fill-rule="evenodd" clip-rule="evenodd" d="M61.7285 29.2433C68.1543 29.7719 71.1523 28.3103 72.6465 17.7056C66.7578 19.3642 60.5859 19.6648 61.7285 29.2433ZM30.5273 93.9807C37.4902 91.8452 40.1172 89.0463 37.7539 77.2495C32.1582 81.4686 25.752 84.3711 30.5273 93.9807ZM26.123 81.4893C33.0859 79.3538 35.7129 76.5549 33.3496 64.7581C27.7539 68.9772 21.3574 71.8694 26.123 81.4893ZM21.7969 69.2467C27.9883 67.3497 30.3223 64.8618 28.2227 54.3711C23.2422 58.1237 17.5488 60.6945 21.7969 69.2467ZM17.9395 58.3621C23.4375 56.6828 25.5078 54.4644 23.6426 45.1555C19.2285 48.4934 14.1797 50.774 17.9395 58.3621ZM14.5313 48.7008C19.6484 47.1355 21.582 45.0726 19.8437 36.396C15.7324 39.5059 11.0254 41.631 14.5313 48.7008ZM10.0684 41.5377C4.16992 40.0035 1.83594 35.5356 4.81445 26.7243C8.00781 28.2896 15.4395 33.5245 10.0684 41.5377ZM27.5293 95.1728C20.957 98.4174 17.2461 98.1272 11.7285 87.5743C18.5645 86.8694 25.1855 84.5888 27.5293 95.1728ZM23.125 82.6814C16.5527 85.9261 12.8418 85.6358 7.32422 75.0829C14.1602 74.378 20.7813 72.0974 23.125 82.6814ZM18.8281 70.4181C12.9785 73.2999 9.6875 73.0511 4.78516 63.6697C10.8594 63.0373 16.748 61.0159 18.8281 70.4181ZM15.0098 59.5335C9.82422 62.094 6.89453 61.8659 2.53906 53.5418C7.92969 52.9717 13.1641 51.1783 15.0098 59.5335ZM11.6113 49.8618C6.77734 52.246 4.05273 52.0283 0 44.2744C5.01953 43.756 9.89258 42.0871 11.6113 49.8618ZM89.4727 94.302C82.5098 92.1666 79.8828 89.3677 82.2461 77.5708C87.8418 81.7899 94.248 84.6821 89.4727 94.302ZM93.877 81.8106C86.9141 79.6752 84.2871 76.8763 86.6504 65.0795C92.2461 69.2985 98.6426 72.1907 93.877 81.8106ZM98.2031 69.5681C92.0117 67.671 89.6777 65.1831 91.7773 54.6925C96.7578 58.4451 102.451 61.0159 98.2031 69.5681ZM102.061 58.6835C96.5625 57.0041 94.4922 54.7858 96.3574 45.4768C100.771 48.8044 105.82 51.0954 102.061 58.6835ZM105.469 49.0221C100.352 47.4568 98.418 45.3939 100.156 36.7173C104.268 39.8272 108.975 41.9523 105.469 49.0221ZM109.932 41.859C115.83 40.3248 118.164 35.8569 115.186 27.0456C111.992 28.6006 104.561 33.8459 109.932 41.859ZM92.4707 95.4838C99.043 98.7284 102.754 98.4381 108.271 87.8853C101.436 87.1804 94.8145 84.9102 92.4707 95.4838ZM96.875 82.9924C103.447 86.237 107.158 85.9468 112.676 75.3939C105.84 74.689 99.2187 72.4188 96.875 82.9924ZM101.172 70.7395C107.021 73.6213 110.313 73.3725 115.215 63.991C109.141 63.3587 103.252 61.3372 101.172 70.7395ZM104.99 59.8445C110.176 62.405 113.105 62.1769 117.461 53.8528C112.07 53.293 106.836 51.4997 104.99 59.8445ZM108.389 50.1728C113.223 52.557 115.947 52.3497 120 44.5957C114.98 44.0774 110.107 42.3981 108.389 50.1728ZM58.0273 92.7574C58.0273 91.6586 58.8672 90.7775 59.8926 90.7775C60.9277 90.7775 61.7578 91.669 61.7578 92.7574V116.994C61.7578 118.093 60.918 118.974 59.8926 118.974C58.8574 118.974 58.0273 118.082 58.0273 116.994V92.7574ZM29.5898 100.853C29.1992 99.8376 29.668 98.6869 30.6152 98.2723C31.5723 97.8576 32.6563 98.3552 33.0469 99.3607C33.7988 101.33 34.6484 103.238 35.498 105.145C37.1973 108.97 38.916 112.827 39.9121 117.118C40.1562 118.176 39.541 119.254 38.5352 119.502C37.5391 119.762 36.5234 119.109 36.2891 118.041C35.3906 114.164 33.75 110.484 32.1289 106.824C31.2402 104.845 30.3613 102.854 29.5898 100.853ZM86.6504 99.3711C87.041 98.3552 88.125 97.868 89.082 98.2827C90.0391 98.6973 90.498 99.848 90.1074 100.864C89.3457 102.865 88.457 104.855 87.5684 106.856C85.8887 110.629 84.1992 114.433 83.3203 118.466C83.0859 119.534 82.0898 120.197 81.084 119.959C80.0781 119.71 79.4531 118.652 79.6777 117.585C80.6445 113.127 82.4219 109.126 84.1895 105.166C85.0488 103.238 85.8984 101.33 86.6504 99.3711ZM57.9199 87.6987C49.1797 88.414 45.0977 86.4236 43.0664 72.0041C51.084 74.264 59.4824 74.6683 57.9199 87.6987ZM57.9199 71.5688C49.1797 72.284 45.0977 70.2937 43.0664 55.8742C51.084 58.1444 59.4824 58.5487 57.9199 71.5688ZM57.9395 55.7706C50.166 56.4133 46.5332 54.6406 44.7266 41.8176C51.8555 43.8286 59.3262 44.1811 57.9395 55.7706ZM57.959 41.7139C51.0645 42.284 47.8418 40.7084 46.2305 29.3262C52.5586 31.1196 59.1895 31.4305 57.959 41.7139ZM57.9688 29.2433C51.543 29.7719 48.5449 28.3103 47.0508 17.7056C52.9395 19.3642 59.1211 19.6648 57.9688 29.2433ZM60.1562 19.1258C66.2207 14.7408 67.0801 8.62474 60.1953 0C57.207 3.19281 50.8789 12.4706 60.1562 19.1258ZM61.7871 87.6987C70.5273 88.414 74.6094 86.4236 76.6406 72.0041C68.6231 74.264 60.2148 74.6683 61.7871 87.6987ZM61.7871 71.5688C70.5273 72.284 74.6094 70.2937 76.6406 55.8742C68.6231 58.1444 60.2148 58.5487 61.7871 71.5688ZM61.7578 55.7706C69.5313 56.4133 73.1641 54.6406 74.9707 41.8176C67.8418 43.8286 60.3711 44.1811 61.7578 55.7706ZM61.7383 41.7139C68.6328 42.284 71.8555 40.7084 73.4668 29.3262C67.1387 31.1196 60.5078 31.4305 61.7383 41.7139Z" fill="black"/>
</g>
<defs>
<clipPath id="clip0_32_70">
<rect width="120" height="120" fill="white"/>
</clipPath>
</defs>
</svg>
