<svg width="120" height="71" viewBox="0 0 120 71" fill="none" xmlns="http://www.w3.org/2000/svg">
<g clip-path="url(#clip0_32_68)">
<path fill-rule="evenodd" clip-rule="evenodd" d="M80.7717 11.84L87.3146 4.93C78.2131 -2.07 58.0178 1.6 49.3166 8.15C45.1456 7.01347 40.8175 6.60442 36.5138 6.94C26.133 7.4 34.8439 16.17 38.1545 19.65C35.3713 24.25 32.842 29.02 30.4201 33.86C28.5744 39 24.6974 41 19.1603 40.32L13.0178 39.07C9.7658 38.41 -1.75764 35 0.224787 41.89C2.22674 46.35 7.12908 50.24 12.3049 54.09C12.8034 57.2272 13.4783 60.3324 14.3263 63.39C16.758 72.39 20.508 72.22 23.1154 63.89L26.6213 52.44C27.7053 48.34 29.9806 46.51 32.9201 46.25C41.8947 45.46 49.3166 48.73 61.3576 44.88C61.9223 48.1066 62.7856 51.2709 63.9357 54.33C65.1955 56.59 67.0021 56.82 69.5803 54.02C72.1956 49.3975 73.9258 44.3065 74.6779 39.02C83.6525 29.5 89.9709 16.14 89.0627 8.3L80.8107 11.87L80.7717 11.84ZM115.83 0V8.58C117.084 9.23366 118.137 10.2298 118.872 11.4581C119.608 12.6865 119.997 14.0992 119.997 15.54C119.997 16.9808 119.608 18.3935 118.872 19.6219C118.137 20.8502 117.084 21.8463 115.83 22.5V37.19C115.733 44.19 112.207 49.19 107.647 51.71C105.751 52.7527 103.653 53.3505 101.504 53.46C99.3162 53.5643 97.1376 53.1071 95.1662 52.13C90.8205 49.97 87.3537 45.13 86.8166 37.33L90.4201 29L93.6135 36.84C93.9553 41.78 95.8205 44.7 98.1447 45.84C99.0964 46.3084 100.146 46.5283 101.201 46.48C102.33 46.424 103.432 46.106 104.424 45.55C105.863 44.7039 107.051 43.474 107.861 41.9912C108.671 40.5084 109.073 38.8283 109.024 37.13V22.54C107.749 21.8943 106.677 20.8967 105.926 19.6598C105.176 18.4229 104.779 16.996 104.779 15.54C104.779 14.084 105.176 12.6571 105.926 11.4202C106.677 10.1833 107.749 9.18568 109.024 8.54V0H115.83ZM73.4474 5.27C72.7865 5.0872 72.0874 5.10948 71.4389 5.334C70.7903 5.55852 70.2215 5.97518 69.8044 6.53115C69.3874 7.08713 69.141 7.75738 69.0964 8.45694C69.0518 9.15651 69.211 9.85388 69.5539 10.4607C69.8968 11.0674 70.408 11.5563 71.0225 11.8652C71.6371 12.1742 72.3274 12.2893 73.0059 12.1961C73.6844 12.1028 74.3207 11.8054 74.8339 11.3414C75.3472 10.8774 75.7143 10.2679 75.8888 9.59C76.1217 8.68572 75.9956 7.72385 75.5382 6.91443C75.0807 6.10502 74.3291 5.51384 73.4474 5.27Z" fill="black"/>
</g>
<defs>
<clipPath id="clip0_32_68">
<rect width="120" height="70.13" fill="white"/>
</clipPath>
</defs>
</svg>
